<?xml version="1.0" encoding="UTF-8"?>
<svg xmlns="http://www.w3.org/2000/svg" xmlns:xlink="http://www.w3.org/1999/xlink" width="667px" height="667px" viewBox="0 0 667 667" version="1.1">
<g id="surface1">
<path style=" stroke:none;fill-rule:nonzero;fill:rgb(0%,0%,0%);fill-opacity:1;" d="M 119.394531 239.585938 C 117.925781 239.988281 113.125 241.1875 108.722656 242.386719 C 77.105469 250.660156 50.425781 275.203125 38.417969 306.953125 C 34.285156 317.890625 34.152344 318.691406 34.015625 340.171875 C 34.015625 359.78125 34.417969 363.25 37.085938 371.519531 C 47.492188 402.46875 65.5 423.144531 93.511719 436.085938 C 107.652344 442.621094 120.992188 445.554688 136.734375 445.554688 C 153.410156 445.554688 166.214844 442.488281 182.089844 434.882812 C 208.371094 422.210938 227.582031 400.066406 236.917969 371.386719 C 240.253906 360.980469 240.386719 359.511719 239.851562 339.371094 C 239.320312 320.828125 238.785156 316.957031 235.71875 308.289062 C 225.847656 280.808594 208.636719 261.195312 183.292969 248.925781 C 168.351562 241.585938 155.410156 238.785156 137.535156 238.917969 C 128.996094 239.054688 120.859375 239.320312 119.394531 239.585938 Z M 182.359375 285.742188 C 184.09375 288.011719 185.425781 337.367188 184.226562 358.980469 C 183.425781 374.71875 183.15625 376.054688 179.554688 380.855469 C 168.882812 394.730469 146.605469 391.128906 144.472656 375.121094 C 143.9375 370.71875 144.472656 368.449219 147.273438 363.648438 C 151.808594 355.777344 157.277344 352.976562 167.148438 352.976562 L 174.753906 353.109375 L 174.488281 332.300781 C 174.21875 319.359375 173.554688 311.621094 172.753906 311.753906 C 161.8125 313.488281 128.464844 320.695312 127.929688 321.226562 C 127.398438 321.761719 126.730469 335.769531 126.195312 352.308594 C 125.796875 368.984375 124.863281 383.925781 124.195312 385.660156 C 123.527344 387.394531 121.261719 390.460938 119.257812 392.460938 C 105.386719 405.535156 83.375 397.664062 85.644531 380.457031 C 87.109375 369.917969 95.515625 363.515625 107.519531 363.648438 C 113.523438 363.648438 114.722656 363.25 115.257812 360.980469 C 115.65625 359.378906 116.058594 345.238281 116.058594 329.363281 C 116.058594 304.417969 116.324219 300.285156 118.191406 298.683594 C 120.058594 297.082031 172.484375 284.675781 178.890625 284.277344 C 180.089844 284.140625 181.691406 284.941406 182.359375 285.742188 Z M 182.359375 285.742188 "/>
<path style=" stroke:none;fill-rule:nonzero;fill:rgb(0%,0%,0%);fill-opacity:1;" d="M 546.941406 284.140625 C 542.40625 285.074219 539.738281 286.675781 536 290.8125 C 531.597656 295.746094 531.066406 297.214844 530.664062 304.550781 L 530.265625 312.824219 L 525.328125 313.222656 L 520.261719 313.625 L 520.261719 328.164062 L 530.933594 328.164062 L 530.933594 377.523438 L 548.273438 377.523438 L 548.273438 328.164062 L 555.609375 328.164062 C 562.414062 328.164062 562.949219 327.898438 562.949219 324.960938 C 562.949219 323.226562 563.347656 319.894531 563.75 317.625 L 564.683594 313.488281 L 548.273438 313.488281 L 548.273438 308.152344 C 548.273438 301.351562 551.875 297.480469 558.144531 297.480469 C 561.613281 297.480469 562.816406 296.816406 563.480469 294.414062 C 564.816406 289.210938 564.414062 284.140625 562.414062 284.140625 C 561.480469 284.140625 558.945312 283.875 556.8125 283.609375 C 554.675781 283.207031 550.273438 283.476562 546.941406 284.140625 Z M 546.941406 284.140625 "/>
<path style=" stroke:none;fill-rule:nonzero;fill:rgb(0%,0%,0%);fill-opacity:1;" d="M 500.515625 285.476562 C 494.648438 287.878906 493.3125 297.082031 498.382812 302.019531 C 499.449219 303.21875 502.519531 304.152344 505.050781 304.152344 C 515.722656 304.152344 518.925781 290.945312 509.453125 286.144531 C 505.1875 283.875 504.785156 283.875 500.515625 285.476562 Z M 500.515625 285.476562 "/>
<path style=" stroke:none;fill-rule:nonzero;fill:rgb(0%,0%,0%);fill-opacity:1;" d="M 269.46875 312.824219 C 258.527344 316.425781 253.460938 322.828125 253.460938 332.964844 C 253.460938 343.90625 257.730469 347.507812 276.539062 351.640625 C 287.878906 354.175781 289.746094 355.511719 289.210938 360.046875 C 288.410156 366.714844 274.9375 368.050781 269.066406 362.046875 C 267.066406 359.914062 264.664062 358.847656 261.195312 358.847656 C 251.726562 358.847656 250.125 361.246094 254.660156 368.71875 C 264.398438 384.457031 296.546875 382.589844 304.6875 365.78125 C 310.6875 353.375 303.75 342.4375 287.476562 338.835938 C 273.203125 335.769531 270.933594 334.835938 270 331.898438 C 268.933594 328.429688 273.46875 324.160156 278.273438 324.160156 C 282.007812 324.160156 288.144531 326.828125 288.144531 328.429688 C 288.144531 329.765625 302.417969 329.898438 303.351562 328.429688 C 304.6875 326.164062 300.015625 318.824219 295.082031 315.492188 C 288.410156 311.089844 278.003906 310.023438 269.46875 312.824219 Z M 269.46875 312.824219 "/>
<path style=" stroke:none;fill-rule:nonzero;fill:rgb(0%,0%,0%);fill-opacity:1;" d="M 331.765625 312.15625 C 321.09375 314.957031 314.691406 320.425781 313.222656 328.429688 C 312.554688 332.164062 312.554688 332.164062 319.894531 332.164062 C 326.03125 332.164062 327.765625 331.632812 330.296875 328.832031 C 332.699219 326.164062 334.699219 325.496094 339.503906 325.496094 C 346.707031 325.496094 350.84375 328.832031 350.84375 334.835938 L 350.84375 338.835938 L 342.4375 338.835938 C 320.027344 338.835938 306.820312 349.90625 311.089844 365.117188 C 314.957031 379.121094 334.835938 384.324219 348.175781 374.855469 C 351.910156 372.1875 351.910156 372.1875 352.578125 374.855469 C 353.109375 377.121094 354.445312 377.523438 360.714844 377.523438 L 368.183594 377.523438 L 368.183594 352.710938 C 368.183594 329.632812 367.917969 327.496094 365.25 322.695312 C 360.3125 313.757812 344.839844 308.953125 331.765625 312.15625 Z M 350.84375 353.644531 C 350.84375 359.378906 348.839844 362.3125 344.039062 364.046875 C 334.566406 367.25 327.628906 364.582031 328.429688 357.914062 C 328.964844 353.109375 335.769531 349.507812 344.570312 349.507812 C 350.707031 349.507812 350.84375 349.640625 350.84375 353.644531 Z M 350.84375 353.644531 "/>
<path style=" stroke:none;fill-rule:nonzero;fill:rgb(0%,0%,0%);fill-opacity:1;" d="M 405.402344 312.15625 C 403.535156 312.691406 400.332031 314.15625 398.464844 315.492188 C 395.398438 317.492188 394.863281 317.492188 394.863281 315.757812 C 394.863281 313.355469 392.0625 312.15625 386.191406 312.15625 C 377.121094 312.15625 377.523438 310.421875 377.523438 345.640625 L 377.523438 377.523438 L 394.730469 377.523438 L 395.128906 355.511719 C 395.53125 330.164062 396.332031 328.429688 407.136719 327.230469 C 412.074219 326.695312 413.671875 327.097656 417.007812 329.898438 L 420.878906 333.234375 L 421.542969 355.109375 L 422.210938 376.855469 L 430.613281 377.253906 L 438.886719 377.65625 L 438.886719 357.914062 C 438.886719 340.703125 439.285156 337.636719 441.554688 333.898438 C 444.890625 328.296875 448.757812 326.429688 455.292969 327.230469 C 464.5 328.429688 464.765625 329.496094 465.566406 354.578125 L 466.234375 376.855469 L 483.574219 376.855469 L 483.976562 355.109375 C 484.375 330.699219 483.308594 324.960938 477.4375 318.160156 C 470.636719 310.421875 455.828125 308.953125 443.957031 314.957031 C 441.289062 316.292969 438.484375 318.558594 437.683594 319.761719 C 436.617188 321.761719 436.085938 321.628906 432.214844 317.890625 C 426.078125 311.890625 414.339844 309.355469 405.402344 312.15625 Z M 405.402344 312.15625 "/>
<path style=" stroke:none;fill-rule:nonzero;fill:rgb(0%,0%,0%);fill-opacity:1;" d="M 616.308594 312.957031 C 615.105469 313.355469 611.640625 320.828125 607.902344 331.230469 C 604.433594 340.96875 600.832031 350.308594 600.167969 352.175781 C 598.832031 355.109375 597.898438 353.375 591.230469 334.566406 L 583.625 313.488281 L 574.6875 313.488281 C 569.085938 313.488281 565.617188 314.023438 565.617188 314.957031 C 565.617188 315.757812 567.082031 320.027344 568.816406 324.5625 C 570.683594 329.097656 575.488281 341.636719 579.488281 352.441406 C 583.492188 363.25 587.492188 373.386719 588.292969 374.855469 C 591.628906 380.992188 582.957031 391.527344 575.355469 390.59375 C 571.886719 390.195312 571.617188 390.59375 571.484375 394.863281 C 571.21875 403.136719 572.820312 405.535156 578.554688 405.535156 C 584.691406 405.535156 593.230469 401.667969 597.230469 397.398438 C 598.832031 395.664062 601.5 391.128906 603.101562 387.527344 C 609.238281 373.921875 631.914062 314.15625 631.382812 313.089844 C 630.847656 312.15625 619.910156 312.023438 616.308594 312.957031 Z M 616.308594 312.957031 "/>
<path style=" stroke:none;fill-rule:nonzero;fill:rgb(0%,0%,0%);fill-opacity:1;" d="M 496.113281 329.097656 C 496.113281 342.570312 496.113281 373.386719 496.246094 376.453125 C 496.246094 377.121094 500.117188 377.523438 504.917969 377.523438 L 513.589844 377.523438 L 513.589844 313.488281 L 496.246094 313.488281 Z M 496.113281 329.097656 "/>
</g>
</svg>
